{"title":"Weekend at the Cabin 2011 VODRiP XviD-SiC.avi","uid":6994139,"size":1474645205,"categoryP":"video","categoryS":"movies","magnet":"?xt=urn:btih:c589929c9208dfa20dc8449d867e2f3af6f8347c&amp;dn=Weekend+at+the+Cabin+2011+VODRiP+XviD-SiC.avi&amp;tr=udp%3A%2F%2Ftracker.openbittorrent.com%3A80&amp;tr=udp%3A%2F%2Fopen.demonii.com%3A1337&amp;tr=udp%3A%2F%2Ftracker.coppersurfer.tk%3A6969&amp;tr=udp%3A%2F%2Fexodus.desync.com%3A6969","seeders":1,"leechers":0,"uploader":"Hackulus","files":-1,"time":1327807334,"description":"\nIMDB Link: &lt;a href=&quot;\nhttp://www.imdb.com/title/tt1823267/&quot; rel=&quot;nofollow&quot; target=&quot;_NEW&quot;&gt;\nhttp://www.imdb.com/title/tt1823267/&lt;/a&gt;\n\nDescription: Going to for a weekend at the cabin could be deadly.\n\n\n\n\n\nGeneral\nComplete name                    : Weekend.at.the.Cabin.2011.VODRiP.XviD-SiC.avi\nFormat                           : AVI\nFormat/Info                      : Audio Video Interleave\nFile size                        : 1.36 GiB\nDuration                         : 1h 24mn\nOverall bit rate                 : 2 310 Kbps\nWriting application              : VirtualDubMod 1.5.10.2 (build 2540/release)\nWriting library                  : VirtualDubMod build 2540/release\n\nVideo\nID                               : 0\nFormat                           : MPEG-4 Visual\nFormat profile                   : Simple@L3\nFormat settings, BVOP            : 2\nFormat settings, QPel            : No\nFormat settings, GMC             : No warppoints\nFormat settings, Matrix          : Default (H.263)\nMuxing mode                      : Packed bitstream\nCodec ID                         : XVID\nCodec ID/Hint                    : XviD\nDuration                         : 1h 24mn\nBit rate                         : 2 042 Kbps\nWidth                            : 720 pixels\nHeight                           : 528 pixels\nDisplay aspect ratio             : 4:3\nFrame rate                       : 29.970 fps\nColor space                      : YUV\nChroma subsampling               : 4:2:0\nBit depth                        : 8 bits\nScan type                        : Progressive\nCompression mode                 : Lossy\nBits/(Pixel*Frame)               : 0.179\nStream size                      : 1.20 GiB (88%)\nWriting library                  : XviD 1.0.3 (UTC 2004-12-20)\n\nAudio\nID                               : 1\nFormat                           : AC-3\nFormat/Info                      : Audio Coding 3\nMode extension                   : CM (complete main)\nCodec ID                         : 2000\nDuration                         : 1h 24mn\nBit rate mode                    : Constant\nBit rate                         : 256 Kbps\nChannel(s)                       : 2 channels\nChannel positions                : Front: L R\nSampling rate                    : 48.0 KHz\nBit depth                        : 16 bits\nCompression mode                 : Lossy\nDelay relative to video          : 1ms\nStream size                      : 154 MiB (11%)\nAlignment                        : Split accross interleaves\nInterleave, duration             : 33 ms (1.00 video frame)\nInterleave, preload duration     : 500 ms\n\n\nScreenshots:\n[img]http://img542.imageshack.us/img542/3715/29238239.png[/img]\n[img]http://img10.imageshack.us/img10/5385/44512637.png[/img]\n[img]http://img837.imageshack.us/img837/5504/30839768.png[/img]\n[img]http://img545.imageshack.us/img545/6807/21076226.png[/img]\n\n\n\n\nNote :  \n\nSource: Friend of a friend. \n\nEnjoy!\n\nRespects to T00NG0D, CM8, Rx, ELEKTRI4KA, PA, YeFsTe, MrRep and everyone in the struggle...","torrent":{"xt":"urn:btih:c589929c9208dfa20dc8449d867e2f3af6f8347c","amp;dn":"Weekend+at+the+Cabin+2011+VODRiP+XviD-SiC.avi","amp;tr":["udp%3A%2F%2Ftracker.openbittorrent.com%3A80","udp%3A%2F%2Fopen.demonii.com%3A1337","udp%3A%2F%2Ftracker.coppersurfer.tk%3A6969","udp%3A%2F%2Fexodus.desync.com%3A6969"],"infoHash":"c589929c9208dfa20dc8449d867e2f3af6f8347c","infoHashBuffer":{"type":"Buffer","data":[197,137,146,156,146,8,223,162,13,200,68,157,134,126,47,58,246,248,52,124]},"announce":[],"urlList":[]}}